<svg width="19" height="19" viewBox="0 0 19 19" fill="none" xmlns="http://www.w3.org/2000/svg">
<path d="M18.8644 18.7001V11.9611C18.8644 8.64914 18.1514 6.11914 14.2874 6.11914C12.4244 6.11914 11.1824 7.13114 10.6764 8.09714H10.6304V6.41814H6.97339V18.7001H10.7914V12.6051C10.7914 10.9951 11.0904 9.45414 13.0684 9.45414C15.0234 9.45414 15.0464 11.2711 15.0464 12.6971V18.6771H18.8644V18.7001Z" fill="white"/>
<path d="M0.599487 6.41809H4.41749V18.7001H0.599487V6.41809Z" fill="white"/>
<path d="M2.50799 0.300049C1.28899 0.300049 0.299988 1.28905 0.299988 2.50805C0.299988 3.72705 1.28899 4.73905 2.50799 4.73905C3.72699 4.73905 4.71599 3.72705 4.71599 2.50805C4.71599 1.28905 3.72699 0.300049 2.50799 0.300049Z" fill="white"/>
</svg>
