<svg xmlns="http://www.w3.org/2000/svg" xmlns:xlink="http://www.w3.org/1999/xlink" width="160" zoomAndPan="magnify" viewBox="0 0 120 37.5" height="50" preserveAspectRatio="xMidYMid meet" version="1.0"><defs><g/><clipPath id="f59abe8ae8"><path d="M 1 3 L 29 3 L 29 30 L 1 30 Z M 1 3 " clip-rule="nonzero"/></clipPath><clipPath id="dd68c832d2"><path d="M 3.703125 0.00390625 L 31.0625 3.753906 L 27.179688 32.089844 L -0.179688 28.339844 Z M 3.703125 0.00390625 " clip-rule="nonzero"/></clipPath><clipPath id="165155c656"><path d="M 3.703125 0.00390625 L 31.0625 3.753906 L 27.179688 32.089844 L -0.179688 28.339844 Z M 3.703125 0.00390625 " clip-rule="nonzero"/></clipPath><clipPath id="9edb07b0d7"><path d="M 34 0.132812 L 115.84375 0.132812 L 115.84375 27 L 34 27 Z M 34 0.132812 " clip-rule="nonzero"/></clipPath><clipPath id="18e01f335d"><path d="M 69 9 L 81.84375 9 L 81.84375 21 L 69 21 Z M 69 9 " clip-rule="nonzero"/></clipPath><clipPath id="f4f3bca221"><rect x="0" width="82" y="0" height="27"/></clipPath><clipPath id="dabe458fb4"><rect x="0" width="116" y="0" height="33"/></clipPath></defs><g transform="matrix(1, 0, 0, 1, 1, 2)"><g clip-path="url(#dabe458fb4)"><g clip-path="url(#f59abe8ae8)"><g clip-path="url(#dd68c832d2)"><g clip-path="url(#165155c656)"><path fill="#ffbd59" d="M 28.390625 10.597656 C 27.382812 8.589844 25.09375 8.460938 23.222656 9.019531 C 19.417969 10.15625 15.484375 13.328125 12.835938 16.21875 C 15.453125 14.925781 18.382812 13.414062 21.121094 12.46875 C 22.003906 12.167969 22.925781 11.894531 23.828125 11.761719 C 24.253906 11.703125 24.667969 11.683594 24.988281 11.722656 C 25.148438 11.742188 25.277344 11.777344 25.363281 11.816406 C 25.402344 11.835938 25.4375 11.855469 25.453125 11.871094 C 25.46875 11.890625 25.476562 11.902344 25.480469 11.910156 C 25.679688 13.511719 23.449219 16.273438 22.359375 17.496094 C 20.75 19.296875 18.960938 20.941406 17.042969 22.414062 C 16.582031 22.789062 16.070312 23.121094 15.589844 23.46875 C 15.3125 23.648438 14.800781 23.972656 14.523438 24.152344 C 12.070312 25.636719 9.410156 26.832031 6.628906 27.648438 C 5.300781 28.039062 3.933594 28.359375 2.550781 28.488281 L 2.164062 28.523438 C 4.183594 29.15625 6.34375 29.121094 8.433594 28.910156 C 9.1875 28.824219 10.046875 28.671875 10.792969 28.519531 C 12.089844 28.234375 13.386719 27.824219 14.625 27.34375 C 15.046875 27.171875 15.503906 26.96875 15.925781 26.785156 C 16.253906 26.621094 16.867188 26.320312 17.191406 26.152344 C 17.78125 25.8125 18.378906 25.492188 18.9375 25.109375 C 18.9375 25.109375 19.617188 24.65625 19.617188 24.65625 C 22.484375 22.632812 25.117188 20.191406 27.050781 17.242188 C 28.210938 15.40625 29.460938 12.800781 28.390625 10.597656 Z M 2.121094 21.664062 C 1.050781 19.460938 2.304688 16.855469 3.464844 15.019531 C 5.398438 12.070312 8.027344 9.632812 10.894531 7.605469 L 11.574219 7.152344 C 12.132812 6.769531 12.734375 6.449219 13.320312 6.109375 C 13.648438 5.941406 14.257812 5.640625 14.585938 5.476562 C 15.007812 5.292969 15.464844 5.089844 15.886719 4.917969 C 17.125 4.4375 18.421875 4.03125 19.71875 3.746094 C 20.464844 3.589844 21.324219 3.4375 22.078125 3.351562 C 24.171875 3.140625 26.328125 3.105469 28.347656 3.738281 C 28.347656 3.738281 27.960938 3.773438 27.960938 3.773438 C 26.578125 3.902344 25.210938 4.222656 23.882812 4.613281 C 21.101562 5.429688 18.441406 6.628906 15.988281 8.109375 C 15.710938 8.289062 15.199219 8.613281 14.925781 8.792969 C 14.441406 9.140625 13.929688 9.472656 13.46875 9.847656 C 11.554688 11.320312 9.761719 12.964844 8.152344 14.765625 C 7.0625 15.988281 4.832031 18.75 5.03125 20.351562 C 5.035156 20.359375 5.042969 20.375 5.058594 20.390625 C 5.078125 20.40625 5.109375 20.425781 5.148438 20.445312 C 5.234375 20.484375 5.363281 20.519531 5.523438 20.539062 C 5.84375 20.582031 6.257812 20.558594 6.683594 20.5 C 7.585938 20.367188 8.511719 20.097656 9.390625 19.792969 C 12.128906 18.847656 15.058594 17.335938 17.675781 16.042969 C 15.027344 18.933594 11.09375 22.105469 7.289062 23.242188 C 5.417969 23.800781 3.128906 23.671875 2.121094 21.664062 " fill-opacity="1" fill-rule="nonzero"/></g></g></g><g clip-path="url(#9edb07b0d7)"><g transform="matrix(1, 0, 0, 1, 34, -0.000000000000001332)"><g clip-path="url(#f4f3bca221)"><g fill="#2f393e" fill-opacity="1"><g transform="translate(0.329855, 20.297195)"><g><path d="M 1.53125 0 L 1.53125 -13.9375 L 6.140625 -13.9375 C 7.179688 -13.9375 8.15625 -13.757812 9.0625 -13.40625 C 9.96875 -13.0625 10.742188 -12.582031 11.390625 -11.96875 C 12.046875 -11.363281 12.554688 -10.628906 12.921875 -9.765625 C 13.285156 -8.910156 13.46875 -7.976562 13.46875 -6.96875 C 13.46875 -5.957031 13.285156 -5.023438 12.921875 -4.171875 C 12.554688 -3.316406 12.050781 -2.582031 11.40625 -1.96875 C 10.757812 -1.363281 9.984375 -0.882812 9.078125 -0.53125 C 8.179688 -0.175781 7.203125 0 6.140625 0 Z M 6.21875 -12.546875 L 3.0625 -12.546875 L 3.0625 -1.390625 L 6.21875 -1.390625 C 7.007812 -1.390625 7.753906 -1.53125 8.453125 -1.8125 C 9.160156 -2.101562 9.765625 -2.5 10.265625 -3 C 10.773438 -3.5 11.175781 -4.085938 11.46875 -4.765625 C 11.757812 -5.453125 11.90625 -6.1875 11.90625 -6.96875 C 11.90625 -7.75 11.757812 -8.484375 11.46875 -9.171875 C 11.175781 -9.859375 10.773438 -10.445312 10.265625 -10.9375 C 9.765625 -11.4375 9.160156 -11.828125 8.453125 -12.109375 C 7.753906 -12.398438 7.007812 -12.546875 6.21875 -12.546875 Z M 6.21875 -12.546875 "/></g></g></g><g fill="#2f393e" fill-opacity="1"><g transform="translate(14.071686, 20.297195)"><g><path d="M 1.25 0 L 1.25 -9.984375 L 2.734375 -9.984375 L 2.734375 -8.5625 C 3.023438 -9.082031 3.410156 -9.484375 3.890625 -9.765625 C 4.367188 -10.054688 4.910156 -10.203125 5.515625 -10.203125 C 5.703125 -10.203125 5.867188 -10.191406 6.015625 -10.171875 C 6.160156 -10.148438 6.304688 -10.113281 6.453125 -10.0625 L 6.453125 -8.703125 C 6.285156 -8.753906 6.113281 -8.796875 5.9375 -8.828125 C 5.757812 -8.867188 5.585938 -8.890625 5.421875 -8.890625 C 4.804688 -8.890625 4.265625 -8.710938 3.796875 -8.359375 C 3.335938 -8.003906 2.984375 -7.492188 2.734375 -6.828125 L 2.734375 0 Z M 1.25 0 "/></g></g></g><g fill="#2f393e" fill-opacity="1"><g transform="translate(20.364992, 20.297195)"><g><path d="M 9.65625 -1.0625 C 9.101562 -0.644531 8.523438 -0.332031 7.921875 -0.125 C 7.316406 0.0703125 6.65625 0.171875 5.9375 0.171875 C 5.21875 0.171875 4.539062 0.0390625 3.90625 -0.21875 C 3.28125 -0.488281 2.738281 -0.851562 2.28125 -1.3125 C 1.820312 -1.78125 1.457031 -2.328125 1.1875 -2.953125 C 0.925781 -3.585938 0.796875 -4.269531 0.796875 -5 C 0.796875 -5.71875 0.925781 -6.390625 1.1875 -7.015625 C 1.445312 -7.640625 1.796875 -8.179688 2.234375 -8.640625 C 2.671875 -9.109375 3.191406 -9.472656 3.796875 -9.734375 C 4.398438 -10.003906 5.039062 -10.140625 5.71875 -10.140625 C 6.382812 -10.140625 7.003906 -10.003906 7.578125 -9.734375 C 8.160156 -9.472656 8.660156 -9.109375 9.078125 -8.640625 C 9.492188 -8.179688 9.820312 -7.640625 10.0625 -7.015625 C 10.3125 -6.390625 10.4375 -5.71875 10.4375 -5 L 10.4375 -4.546875 L 2.25 -4.546875 C 2.351562 -3.554688 2.753906 -2.734375 3.453125 -2.078125 C 4.160156 -1.429688 5.007812 -1.109375 6 -1.109375 C 6.507812 -1.109375 7.007812 -1.1875 7.5 -1.34375 C 8 -1.507812 8.414062 -1.738281 8.75 -2.03125 Z M 5.671875 -8.84375 C 4.804688 -8.84375 4.054688 -8.550781 3.421875 -7.96875 C 2.796875 -7.382812 2.421875 -6.632812 2.296875 -5.71875 L 8.96875 -5.71875 C 8.832031 -6.59375 8.453125 -7.332031 7.828125 -7.9375 C 7.210938 -8.539062 6.492188 -8.84375 5.671875 -8.84375 Z M 5.671875 -8.84375 "/></g></g></g><g fill="#2f393e" fill-opacity="1"><g transform="translate(30.99995, 20.297195)"><g><path d="M 4.515625 0 L 3.09375 0 L 0.28125 -9.984375 L 1.734375 -9.984375 L 3.890625 -2.015625 L 6.375 -9.984375 L 7.6875 -9.984375 L 10.15625 -2.015625 L 12.328125 -9.984375 L 13.71875 -9.984375 L 10.890625 0 L 9.484375 0 L 7.015625 -7.984375 Z M 4.515625 0 "/></g></g></g><g fill="#2f393e" fill-opacity="1"><g transform="translate(44.407979, 20.297195)"><g><path d="M 1.25 0 L 1.25 -13.9375 L 6.609375 -13.9375 C 7.648438 -13.9375 8.617188 -13.757812 9.515625 -13.40625 C 10.421875 -13.050781 11.203125 -12.5625 11.859375 -11.9375 C 12.515625 -11.3125 13.03125 -10.566406 13.40625 -9.703125 C 13.789062 -8.835938 13.984375 -7.914062 13.984375 -6.9375 C 13.984375 -5.96875 13.789062 -5.054688 13.40625 -4.203125 C 13.03125 -3.347656 12.515625 -2.613281 11.859375 -2 C 11.203125 -1.382812 10.421875 -0.894531 9.515625 -0.53125 C 8.617188 -0.175781 7.648438 0 6.609375 0 Z M 6.59375 -11.375 L 4.140625 -11.375 L 4.140625 -2.5625 L 6.59375 -2.5625 C 7.207031 -2.5625 7.78125 -2.675781 8.3125 -2.90625 C 8.851562 -3.132812 9.320312 -3.441406 9.71875 -3.828125 C 10.113281 -4.222656 10.425781 -4.6875 10.65625 -5.21875 C 10.882812 -5.75 11 -6.320312 11 -6.9375 C 11 -7.5625 10.882812 -8.144531 10.65625 -8.6875 C 10.425781 -9.226562 10.113281 -9.695312 9.71875 -10.09375 C 9.320312 -10.5 8.851562 -10.8125 8.3125 -11.03125 C 7.78125 -11.257812 7.207031 -11.375 6.59375 -11.375 Z M 6.59375 -11.375 "/></g></g></g><g fill="#2f393e" fill-opacity="1"><g transform="translate(58.508294, 20.297195)"><g><path d="M 10.375 -1.296875 C 9.738281 -0.773438 9.082031 -0.394531 8.40625 -0.15625 C 7.738281 0.0820312 6.992188 0.203125 6.171875 0.203125 C 5.390625 0.203125 4.65625 0.0625 3.96875 -0.21875 C 3.289062 -0.5 2.703125 -0.878906 2.203125 -1.359375 C 1.703125 -1.835938 1.304688 -2.40625 1.015625 -3.0625 C 0.734375 -3.71875 0.59375 -4.421875 0.59375 -5.171875 C 0.59375 -5.921875 0.726562 -6.625 1 -7.28125 C 1.28125 -7.9375 1.65625 -8.503906 2.125 -8.984375 C 2.601562 -9.472656 3.171875 -9.859375 3.828125 -10.140625 C 4.492188 -10.421875 5.195312 -10.5625 5.9375 -10.5625 C 6.664062 -10.5625 7.34375 -10.414062 7.96875 -10.125 C 8.601562 -9.84375 9.148438 -9.457031 9.609375 -8.96875 C 10.066406 -8.476562 10.425781 -7.890625 10.6875 -7.203125 C 10.945312 -6.515625 11.078125 -5.773438 11.078125 -4.984375 L 11.078125 -4.265625 L 3.34375 -4.265625 C 3.53125 -3.609375 3.890625 -3.082031 4.421875 -2.6875 C 4.953125 -2.289062 5.578125 -2.09375 6.296875 -2.09375 C 6.742188 -2.09375 7.164062 -2.164062 7.5625 -2.3125 C 7.96875 -2.457031 8.3125 -2.660156 8.59375 -2.921875 Z M 5.875 -8.3125 C 5.25 -8.3125 4.707031 -8.117188 4.25 -7.734375 C 3.800781 -7.359375 3.492188 -6.851562 3.328125 -6.21875 L 8.40625 -6.21875 C 8.226562 -6.820312 7.910156 -7.320312 7.453125 -7.71875 C 6.992188 -8.113281 6.46875 -8.3125 5.875 -8.3125 Z M 5.875 -8.3125 "/></g></g></g><g clip-path="url(#18e01f335d)"><g fill="#2f393e" fill-opacity="1"><g transform="translate(69.581399, 20.297195)"><g><path d="M 4.46875 0 L 0 -10.375 L 2.96875 -10.375 L 5.8125 -3.46875 L 8.640625 -10.375 L 11.546875 -10.375 L 7.09375 0 Z M 4.46875 0 "/></g></g></g></g></g></g></g></g></g></svg>